<svg width="216" height="98" viewBox="0 0 216 98" fill="none" xmlns="http://www.w3.org/2000/svg">
<path d="M24 57.088V40.288H31.632C33.456 40.288 35.064 40.64 36.456 41.344C37.848 42.032 38.936 43 39.72 44.248C40.504 45.496 40.896 46.976 40.896 48.688C40.896 50.384 40.504 51.864 39.72 53.128C38.936 54.376 37.848 55.352 36.456 56.056C35.064 56.744 33.456 57.088 31.632 57.088H24ZM27.888 53.896H31.44C32.56 53.896 33.528 53.688 34.344 53.272C35.176 52.84 35.816 52.232 36.264 51.448C36.728 50.664 36.96 49.744 36.96 48.688C36.96 47.616 36.728 46.696 36.264 45.928C35.816 45.144 35.176 44.544 34.344 44.128C33.528 43.696 32.56 43.48 31.44 43.48H27.888V53.896Z" fill="#161617"/>
<path d="M45.0041 47.056H53.0921V50.08H45.0041V47.056ZM45.2921 53.968H54.4361V57.088H41.4281V40.288H54.1241V43.408H45.2921V53.968Z" fill="#161617"/>
<path d="M58.7057 47.056H66.7937V50.08H58.7057V47.056ZM58.9937 53.968H68.1377V57.088H55.1297V40.288H67.8257V43.408H58.9937V53.968Z" fill="#161617"/>
<path d="M68.8312 57.088V40.288H76.1032C77.6072 40.288 78.9032 40.536 79.9912 41.032C81.0792 41.512 81.9192 42.208 82.5112 43.12C83.1032 44.032 83.3993 45.12 83.3993 46.384C83.3993 47.632 83.1032 48.712 82.5112 49.624C81.9192 50.536 81.0792 51.24 79.9912 51.736C78.9032 52.216 77.6072 52.456 76.1032 52.456H70.9912L72.7192 50.704V57.088H68.8312ZM72.7192 51.136L70.9912 49.288H75.8872C77.0872 49.288 77.9832 49.032 78.5752 48.52C79.1672 48.008 79.4632 47.296 79.4632 46.384C79.4632 45.456 79.1672 44.736 78.5752 44.224C77.9832 43.712 77.0872 43.456 75.8872 43.456H70.9912L72.7192 41.608V51.136Z" fill="#161617"/>
<path d="M88.4062 57.088V40.288H96.6143C98.7263 40.288 100.31 40.688 101.366 41.488C102.438 42.288 102.974 43.344 102.974 44.656C102.974 45.536 102.758 46.304 102.326 46.96C101.894 47.6 101.302 48.096 100.55 48.448C99.7982 48.8 98.9343 48.976 97.9583 48.976L98.4143 47.992C99.4703 47.992 100.406 48.168 101.222 48.52C102.038 48.856 102.67 49.36 103.118 50.032C103.582 50.704 103.814 51.528 103.814 52.504C103.814 53.944 103.246 55.072 102.11 55.888C100.974 56.688 99.3023 57.088 97.0943 57.088H88.4062ZM92.2702 54.16H96.8063C97.8143 54.16 98.5743 54 99.0863 53.68C99.6143 53.344 99.8783 52.816 99.8783 52.096C99.8783 51.392 99.6143 50.872 99.0863 50.536C98.5743 50.184 97.8143 50.008 96.8063 50.008H91.9822V47.176H96.1342C97.0782 47.176 97.7983 47.016 98.2943 46.696C98.8063 46.36 99.0622 45.856 99.0622 45.184C99.0622 44.528 98.8063 44.04 98.2943 43.72C97.7983 43.384 97.0782 43.216 96.1342 43.216H92.2702V54.16Z" fill="#161617"/>
<path d="M104.358 57.088V40.288H111.63C113.134 40.288 114.43 40.536 115.518 41.032C116.606 41.512 117.446 42.208 118.038 43.12C118.63 44.032 118.926 45.12 118.926 46.384C118.926 47.632 118.63 48.712 118.038 49.624C117.446 50.52 116.606 51.208 115.518 51.688C114.43 52.168 113.134 52.408 111.63 52.408H106.518L108.246 50.704V57.088H104.358ZM115.038 57.088L110.838 50.992H114.99L119.238 57.088H115.038ZM108.246 51.136L106.518 49.312H111.414C112.614 49.312 113.51 49.056 114.102 48.544C114.694 48.016 114.99 47.296 114.99 46.384C114.99 45.456 114.694 44.736 114.102 44.224C113.51 43.712 112.614 43.456 111.414 43.456H106.518L108.246 41.608V51.136Z" fill="#161617"/>
<path d="M119.606 57.088V40.288H123.494V57.088H119.606Z" fill="#161617"/>
<path d="M125.081 57.088V40.288H132.713C134.537 40.288 136.145 40.64 137.537 41.344C138.929 42.032 140.017 43 140.801 44.248C141.585 45.496 141.977 46.976 141.977 48.688C141.977 50.384 141.585 51.864 140.801 53.128C140.017 54.376 138.929 55.352 137.537 56.056C136.145 56.744 134.537 57.088 132.713 57.088H125.081ZM128.969 53.896H132.521C133.641 53.896 134.609 53.688 135.425 53.272C136.257 52.84 136.897 52.232 137.345 51.448C137.809 50.664 138.041 49.744 138.041 48.688C138.041 47.616 137.809 46.696 137.345 45.928C136.897 45.144 136.257 44.544 135.425 44.128C134.609 43.696 133.641 43.48 132.521 43.48H128.969V53.896Z" fill="#161617"/>
<path d="M150.621 57.376C149.293 57.376 148.069 57.168 146.949 56.752C145.845 56.32 144.877 55.712 144.045 54.928C143.229 54.144 142.589 53.224 142.125 52.168C141.677 51.112 141.453 49.952 141.453 48.688C141.453 47.424 141.677 46.264 142.125 45.208C142.589 44.152 143.237 43.232 144.069 42.448C144.901 41.664 145.877 41.064 146.997 40.648C148.117 40.216 149.349 40 150.693 40C152.181 40 153.517 40.248 154.701 40.744C155.901 41.24 156.909 41.96 157.725 42.904L155.229 45.208C154.621 44.568 153.957 44.096 153.237 43.792C152.517 43.472 151.733 43.312 150.885 43.312C150.069 43.312 149.325 43.44 148.653 43.696C147.981 43.952 147.397 44.32 146.901 44.8C146.421 45.28 146.045 45.848 145.773 46.504C145.517 47.16 145.389 47.888 145.389 48.688C145.389 49.472 145.517 50.192 145.773 50.848C146.045 51.504 146.421 52.08 146.901 52.576C147.397 53.056 147.973 53.424 148.629 53.68C149.301 53.936 150.037 54.064 150.837 54.064C151.605 54.064 152.349 53.944 153.069 53.704C153.805 53.448 154.517 53.024 155.205 52.432L157.413 55.24C156.501 55.928 155.437 56.456 154.221 56.824C153.021 57.192 151.821 57.376 150.621 57.376ZM153.861 54.736V48.424H157.413V55.24L153.861 54.736Z" fill="#161617"/>
<path d="M162.201 47.056H170.289V50.08H162.201V47.056ZM162.489 53.968H171.633V57.088H158.625V40.288H171.321V43.408H162.489V53.968Z" fill="#161617"/>
<path d="M185.233 48.9118C185.233 48.9118 184.231 49.4121 184.081 50.1583C183.739 51.8604 184.168 55.7641 184.168 55.7641L179.364 54.6467C179.364 54.6467 179.313 50.8014 182.623 49.6875C183.194 49.4955 185.233 48.9118 185.233 48.9118Z" fill="#1C45AE"/>
<path d="M185.233 48.9118C185.233 48.9118 183.194 49.4955 182.623 49.6875C179.313 50.8014 179.364 54.6467 179.364 54.6467L184.168 55.7641C184.168 55.7641 183.739 51.8604 184.081 50.1583C184.231 49.4121 185.233 48.9118 185.233 48.9118ZM185.233 48.9118L187.618 49.3903C188.614 49.59 190.637 48.2631 191.327 47.5177M182.783 49.7118C182.783 49.7118 184.21 49.3533 185.583 48.5618C186.899 47.803 190.299 44.6118 190.299 44.6118M186.254 47.9118L186.125 47.2739C185.809 45.7059 186.097 43.3855 186.933 42.0213M182.633 49.9618L183.323 47.5177C183.632 46.4225 183.258 45.2485 182.371 44.5346L181.538 43.8631C180.857 43.3145 180.474 42.0778 180.966 41.3546M177.299 44.1676L179.55 45.3692C180.397 45.8558 181.356 46.1118 182.333 46.1118H183.133M182.183 44.2618L182.341 44.1676C183.269 43.6166 184.311 42.0514 184.633 41.0213" stroke="#1C45AE" stroke-width="2" stroke-linecap="round"/>
<rect x="175.633" y="40.688" width="16" height="16" rx="8" stroke="#1C45AE" stroke-width="2"/>
</svg>
