<svg width="24" height="24" viewBox="0 0 24 24" fill="none" xmlns="http://www.w3.org/2000/svg">
<path d="M12 21C16.9706 21 21 16.9706 21 12C21 7.02944 16.9706 3 12 3C7.02944 3 3 7.02944 3 12C3 16.9706 7.02944 21 12 21Z" stroke="white" stroke-width="2" stroke-linecap="round" stroke-linejoin="round"/>
<path d="M16 4C16 4.53043 15.7893 5.03914 15.4142 5.41421C15.0391 5.78929 14.5304 6 14 6H13.5C13.1022 6 12.7206 6.15804 12.4393 6.43934C12.158 6.72064 12 7.10218 12 7.5V8C12 8.26522 11.8946 8.51957 11.7071 8.70711C11.5196 8.89464 11.2652 9 11 9C10.7348 9 10.4804 9.10536 10.2929 9.29289C10.1054 9.48043 10 9.73478 10 10V11C10 11.5304 10.2107 12.0391 10.5858 12.4142C10.9609 12.7893 11.4696 13 12 13H14C14.5304 13 15.0391 13.2107 15.4142 13.5858C15.7893 13.9609 16 14.4696 16 15C16 15.5304 16.2107 16.0391 16.5858 16.4142C16.9609 16.7893 17.4696 17 18 17H19M11 21V18.5C11 17.672 10.315 17 9.487 17C8.673 17 8 16.34 8 15.526C8 15.186 7.882 14.856 7.667 14.593L3.5 9.5" stroke="white" stroke-width="2" stroke-linecap="round" stroke-linejoin="round"/>
</svg>
