<svg width="24" height="24" viewBox="0 0 24 24" fill="none" xmlns="http://www.w3.org/2000/svg">
<path d="M7.52813 8.21257C7.38787 8.07197 7.3091 7.88148 7.3091 7.68288C7.3091 7.48428 7.38787 7.29379 7.52813 7.15319L11.4656 3.21569C11.6078 3.07486 11.7999 2.99585 12 2.99585C12.2001 2.99585 12.3922 3.07486 12.5344 3.21569L16.4719 7.15319C16.6121 7.29379 16.6909 7.48428 16.6909 7.68288C16.6909 7.88148 16.6121 8.07197 16.4719 8.21257C16.4021 8.28343 16.3189 8.33971 16.2272 8.37812C16.1354 8.41653 16.037 8.43631 15.9375 8.43631C15.838 8.43631 15.7396 8.41653 15.6478 8.37812C15.5561 8.33971 15.4729 8.28343 15.4031 8.21257L12.75 5.55944V14.2501C12.75 14.449 12.671 14.6397 12.5303 14.7804C12.3897 14.9211 12.1989 15.0001 12 15.0001C11.8011 15.0001 11.6103 14.9211 11.4697 14.7804C11.329 14.6397 11.25 14.449 11.25 14.2501V5.55944L8.59687 8.21257C8.52709 8.28343 8.4439 8.33971 8.35216 8.37812C8.26042 8.41653 8.16196 8.43631 8.0625 8.43631C7.96304 8.43631 7.86458 8.41653 7.77284 8.37812C7.6811 8.33971 7.59791 8.28343 7.52813 8.21257ZM20.25 13.5001C20.0511 13.5001 19.8603 13.5791 19.7197 13.7197C19.579 13.8604 19.5 14.0512 19.5 14.2501V19.5001H4.5V14.2501C4.5 14.0512 4.42098 13.8604 4.28033 13.7197C4.13968 13.5791 3.94891 13.5001 3.75 13.5001C3.55109 13.5001 3.36032 13.5791 3.21967 13.7197C3.07902 13.8604 3 14.0512 3 14.2501V19.5001C3 19.8979 3.15804 20.2794 3.43934 20.5607C3.72064 20.842 4.10218 21.0001 4.5 21.0001H19.5C19.8978 21.0001 20.2794 20.842 20.5607 20.5607C20.842 20.2794 21 19.8979 21 19.5001V14.2501C21 14.0512 20.921 13.8604 20.7803 13.7197C20.6397 13.5791 20.4489 13.5001 20.25 13.5001Z" fill="#161617"/>
</svg>
